<svg width="1150" height="1005" viewBox="0 0 1150 1005" fill="none" xmlns="http://www.w3.org/2000/svg">
<circle cx="575" cy="500" r="500" fill="#FFC700"/>
<ellipse cx="574.5" cy="507.5" rx="482.5" ry="492.5" fill="url(#paint0_linear_8_335)"/>
<path d="M126.977 1004.1C106.404 1004.1 87.3281 1000.52 69.75 993.359C52.1719 986.198 38.1094 975.846 27.5625 962.305C17.1458 948.633 12.1328 932.227 12.5234 913.086L12.9141 911.914H68.1875C68.1875 923.112 70.5312 932.357 75.2188 939.648C79.9062 946.81 86.612 952.148 95.3359 955.664C104.19 959.18 114.737 960.938 126.977 960.938C137.393 960.938 146.117 959.505 153.148 956.641C160.31 953.776 165.714 949.74 169.359 944.531C173.005 939.193 174.828 932.943 174.828 925.781C174.828 918.49 173.135 912.174 169.75 906.836C166.495 901.497 161.026 896.745 153.344 892.578C145.792 888.411 135.505 884.44 122.484 880.664C100.089 874.023 81.2734 866.797 66.0391 858.984C50.8047 851.042 39.2812 841.602 31.4688 830.664C23.7865 819.596 19.9453 806.315 19.9453 790.82C19.9453 775.195 24.4375 761.458 33.4219 749.609C42.5365 737.63 55.0365 728.32 70.9219 721.68C86.9375 714.909 105.167 711.523 125.609 711.523C146.573 711.523 164.997 715.365 180.883 723.047C196.768 730.599 209.138 740.885 217.992 753.906C226.846 766.927 231.013 781.576 230.492 797.852L230.102 799.023H175.023C175.023 790.169 173.005 782.487 168.969 775.977C165.062 769.336 159.398 764.193 151.977 760.547C144.555 756.771 135.505 754.883 124.828 754.883C114.672 754.883 106.013 756.445 98.8516 759.57C91.6901 762.565 86.2214 766.797 82.4453 772.266C78.6693 777.734 76.7812 783.984 76.7812 791.016C76.7812 797.396 78.6693 802.995 82.4453 807.812C86.3516 812.5 92.6667 816.992 101.391 821.289C110.245 825.456 121.898 829.818 136.352 834.375C167.732 843.099 191.495 854.622 207.641 868.945C223.917 883.268 232.055 902.083 232.055 925.391C232.055 941.536 227.628 955.534 218.773 967.383C210.049 979.102 197.81 988.151 182.055 994.531C166.43 1000.91 148.07 1004.1 126.977 1004.1ZM345.531 1004.1C323.266 1004.1 305.753 997.07 292.992 983.008C280.362 968.815 274.047 946.81 274.047 916.992V828.906L250.805 823.047V788.672H274.047H331.078V917.383C331.078 932.487 333.682 943.359 338.891 950C344.229 956.51 352.237 959.766 362.914 959.766C371.378 959.766 378.865 958.138 385.375 954.883C391.885 951.497 397.224 946.745 401.391 940.625V828.906L376.195 823.047V788.672H401.391H458.422V959.961L483.812 965.82V1000H408.422L404.516 973.242C397.875 983.138 389.542 990.755 379.516 996.094C369.49 1001.43 358.161 1004.1 345.531 1004.1ZM502.953 1000V965.82L530.297 959.961V828.906L500.023 823.047V788.672H583.422L585.961 818.945C592.992 808.138 601.651 799.74 611.938 793.75C622.354 787.76 634.203 784.766 647.484 784.766C668.448 784.766 684.854 791.471 696.703 804.883C708.552 818.294 714.477 839.323 714.477 867.969V959.961L741.82 965.82V1000H632.836V965.82L657.25 959.961V868.164C657.25 853.971 654.451 843.945 648.852 838.086C643.253 832.096 634.919 829.102 623.852 829.102C615.648 829.102 608.487 830.859 602.367 834.375C596.378 837.76 591.365 842.643 587.328 849.023V959.961L610.375 965.82V1000H502.953ZM757.445 1000V965.82L784.984 959.961V735.547L754.516 729.688V695.312H842.016V959.961L869.555 965.82V1000H757.445ZM886.547 1000V965.82L914.086 959.961V828.906L883.617 823.047V788.672H971.117V959.961L998.461 965.82V1000H886.547ZM912.133 743.945V695.312H971.117V743.945H912.133ZM1100.61 1004.1C1080.95 1004.1 1065.78 998.698 1055.1 987.891C1044.55 977.083 1039.28 959.961 1039.28 936.523V828.711H1010.18V788.672H1039.28V736.914H1096.12V788.672H1134.98V828.711H1096.12V936.328C1096.12 944.531 1097.81 950.391 1101.2 953.906C1104.71 957.422 1109.46 959.18 1115.45 959.18C1118.71 959.18 1122.09 958.984 1125.61 958.594C1129.26 958.073 1132.38 957.552 1134.98 957.031L1139.87 998.242C1134.01 999.935 1127.63 1001.3 1120.73 1002.34C1113.96 1003.52 1107.25 1004.1 1100.61 1004.1Z" fill="url(#paint1_linear_8_335)"/>
<defs>
<linearGradient id="paint0_linear_8_335" x1="574.5" y1="15" x2="574.5" y2="1000" gradientUnits="userSpaceOnUse">
<stop stop-color="white" stop-opacity="0.78"/>
<stop offset="0.526042" stop-color="white" stop-opacity="0"/>
</linearGradient>
<linearGradient id="paint1_linear_8_335" x1="575.5" y1="716" x2="575.5" y2="1000" gradientUnits="userSpaceOnUse">
<stop stop-color="#E65808"/>
<stop offset="0.5" stop-color="#E55808"/>
<stop offset="1" stop-color="#FFA800" stop-opacity="0.9"/>
</linearGradient>
</defs>
</svg>
