<svg width="1040" height="1220" viewBox="0 0 1040 1220" fill="none" xmlns="http://www.w3.org/2000/svg">
<ellipse cx="519" cy="499.839" rx="500" ry="499.839" fill="url(#paint0_linear_524_267)"/>
<ellipse cx="518.5" cy="507.614" rx="482.5" ry="492.386" fill="url(#paint1_linear_524_267)"/>
<path d="M115.6 1210.45C92.9333 1210.45 73.6 1206.19 57.6 1197.65C41.6 1188.85 28 1176.85 16.8 1161.65L41.6 1140.85C51.4667 1153.92 62.4 1163.92 74.4 1170.85C86.4 1177.52 100.533 1180.85 116.8 1180.85C136.8 1180.85 152 1176.05 162.4 1166.45C173.067 1156.85 178.4 1144.05 178.4 1128.05C178.4 1114.72 174.4 1104.45 166.4 1097.25C158.4 1090.05 145.2 1084.32 126.8 1080.05L104 1074.85C78.4 1068.99 58.8 1060.19 45.2 1048.45C31.8667 1036.45 25.2 1019.65 25.2 998.052C25.2 985.786 27.4667 974.852 32 965.252C36.5333 955.652 42.8 947.652 50.8 941.252C59.0667 934.852 68.8 930.052 80 926.852C91.4667 923.386 104 921.652 117.6 921.652C138.667 921.652 156.667 925.519 171.6 933.252C186.8 940.986 199.6 952.319 210 967.252L184.8 985.652C177.067 974.986 167.733 966.586 156.8 960.452C145.867 954.319 132.267 951.252 116 951.252C98.1333 951.252 84 955.119 73.6 962.852C63.4667 970.319 58.4 981.652 58.4 996.852C58.4 1010.19 62.6667 1020.32 71.2 1027.25C80 1033.92 93.2 1039.25 110.8 1043.25L133.6 1048.45C161.067 1054.59 180.933 1063.92 193.2 1076.45C205.467 1088.99 211.6 1105.65 211.6 1126.45C211.6 1139.25 209.333 1150.85 204.8 1161.25C200.533 1171.65 194.267 1180.45 186 1187.65C177.733 1194.85 167.6 1200.45 155.6 1204.45C143.867 1208.45 130.533 1210.45 115.6 1210.45ZM393.622 1172.05H392.022C389.889 1176.85 387.222 1181.65 384.022 1186.45C381.089 1190.99 377.355 1195.12 372.822 1198.85C368.289 1202.32 362.822 1205.12 356.422 1207.25C350.022 1209.39 342.555 1210.45 334.022 1210.45C312.689 1210.45 295.755 1203.65 283.222 1190.05C270.689 1176.19 264.422 1156.72 264.422 1131.65V999.252H296.422V1126.05C296.422 1163.12 312.155 1181.65 343.622 1181.65C350.022 1181.65 356.155 1180.85 362.022 1179.25C368.155 1177.65 373.489 1175.25 378.022 1172.05C382.822 1168.85 386.555 1164.85 389.222 1160.05C392.155 1154.99 393.622 1148.99 393.622 1142.05V999.252H425.622V1205.65H393.622V1172.05ZM493.766 1205.65V999.252H525.766V1032.85H527.366C532.432 1021.12 539.499 1011.79 548.566 1004.85C557.899 997.919 570.299 994.452 585.766 994.452C607.099 994.452 623.899 1001.39 636.166 1015.25C648.699 1028.85 654.966 1048.19 654.966 1073.25V1205.65H622.966V1078.85C622.966 1041.79 607.366 1023.25 576.166 1023.25C569.766 1023.25 563.499 1024.05 557.366 1025.65C551.499 1027.25 546.166 1029.65 541.366 1032.85C536.566 1036.05 532.699 1040.19 529.766 1045.25C527.099 1050.05 525.766 1055.79 525.766 1062.45V1205.65H493.766ZM755.109 1205.65C743.909 1205.65 735.376 1202.59 729.509 1196.45C723.909 1190.05 721.109 1182.05 721.109 1172.45V909.652H753.109V1177.65H783.509V1205.65H755.109ZM846.094 950.852C839.16 950.852 834.094 949.252 830.894 946.052C827.96 942.586 826.494 938.186 826.494 932.852V927.652C826.494 922.319 827.96 918.052 830.894 914.852C834.094 911.386 839.16 909.652 846.094 909.652C853.027 909.652 857.96 911.386 860.894 914.852C864.094 918.052 865.694 922.319 865.694 927.652V932.852C865.694 938.186 864.094 942.586 860.894 946.052C857.96 949.252 853.027 950.852 846.094 950.852ZM830.094 999.252H862.094V1205.65H830.094V999.252ZM975.694 1205.65C964.494 1205.65 955.96 1202.59 950.094 1196.45C944.494 1190.05 941.694 1181.79 941.694 1171.65V1027.25H907.694V999.252H926.894C933.827 999.252 938.494 997.919 940.894 995.252C943.56 992.319 944.894 987.386 944.894 980.452V942.052H973.694V999.252H1018.89V1027.25H973.694V1177.65H1015.69V1205.65H975.694Z" fill="url(#paint2_linear_524_267)"/>
<defs>
<linearGradient id="paint0_linear_524_267" x1="519" y1="0" x2="519" y2="999.678" gradientUnits="userSpaceOnUse">
<stop stop-color="#FFE60A"/>
<stop offset="1" stop-color="#FFBB36"/>
</linearGradient>
<linearGradient id="paint1_linear_524_267" x1="518.5" y1="15.2285" x2="518.5" y2="1000" gradientUnits="userSpaceOnUse">
<stop stop-color="white" stop-opacity="0.78"/>
<stop offset="0.526042" stop-color="white" stop-opacity="0"/>
</linearGradient>
<linearGradient id="paint2_linear_524_267" x1="520" y1="795.652" x2="520" y2="1316.08" gradientUnits="userSpaceOnUse">
<stop stop-color="white"/>
<stop offset="1" stop-color="#F3E035" stop-opacity="0.79"/>
</linearGradient>
</defs>
</svg>
