<svg width="1149" height="310" viewBox="0 0 1149 310" fill="none" xmlns="http://www.w3.org/2000/svg">
<path d="M125.977 309.102C105.404 309.102 86.3281 305.521 68.75 298.359C51.1719 291.198 37.1094 280.846 26.5625 267.305C16.1458 253.633 11.1328 237.227 11.5234 218.086L11.9141 216.914H67.1875C67.1875 228.112 69.5312 237.357 74.2188 244.648C78.9062 251.81 85.612 257.148 94.3359 260.664C103.19 264.18 113.737 265.938 125.977 265.938C136.393 265.938 145.117 264.505 152.148 261.641C159.31 258.776 164.714 254.74 168.359 249.531C172.005 244.193 173.828 237.943 173.828 230.781C173.828 223.49 172.135 217.174 168.75 211.836C165.495 206.497 160.026 201.745 152.344 197.578C144.792 193.411 134.505 189.44 121.484 185.664C99.0885 179.023 80.2734 171.797 65.0391 163.984C49.8047 156.042 38.2812 146.602 30.4688 135.664C22.7865 124.596 18.9453 111.315 18.9453 95.8203C18.9453 80.1953 23.4375 66.4583 32.4219 54.6094C41.5365 42.6302 54.0365 33.3203 69.9219 26.6797C85.9375 19.9089 104.167 16.5234 124.609 16.5234C145.573 16.5234 163.997 20.3646 179.883 28.0469C195.768 35.599 208.138 45.8854 216.992 58.9062C225.846 71.9271 230.013 86.5755 229.492 102.852L229.102 104.023H174.023C174.023 95.1693 172.005 87.487 167.969 80.9766C164.062 74.3359 158.398 69.1927 150.977 65.5469C143.555 61.7708 134.505 59.8828 123.828 59.8828C113.672 59.8828 105.013 61.4453 97.8516 64.5703C90.6901 67.5651 85.2214 71.7969 81.4453 77.2656C77.6693 82.7344 75.7812 88.9844 75.7812 96.0156C75.7812 102.396 77.6693 107.995 81.4453 112.812C85.3516 117.5 91.6667 121.992 100.391 126.289C109.245 130.456 120.898 134.818 135.352 139.375C166.732 148.099 190.495 159.622 206.641 173.945C222.917 188.268 231.055 207.083 231.055 230.391C231.055 246.536 226.628 260.534 217.773 272.383C209.049 284.102 196.81 293.151 181.055 299.531C165.43 305.911 147.07 309.102 125.977 309.102ZM344.531 309.102C322.266 309.102 304.753 302.07 291.992 288.008C279.362 273.815 273.047 251.81 273.047 221.992V133.906L249.805 128.047V93.6719H273.047H330.078V222.383C330.078 237.487 332.682 248.359 337.891 255C343.229 261.51 351.237 264.766 361.914 264.766C370.378 264.766 377.865 263.138 384.375 259.883C390.885 256.497 396.224 251.745 400.391 245.625V133.906L375.195 128.047V93.6719H400.391H457.422V264.961L482.812 270.82V305H407.422L403.516 278.242C396.875 288.138 388.542 295.755 378.516 301.094C368.49 306.432 357.161 309.102 344.531 309.102ZM501.953 305V270.82L529.297 264.961V133.906L499.023 128.047V93.6719H582.422L584.961 123.945C591.992 113.138 600.651 104.74 610.938 98.75C621.354 92.7604 633.203 89.7656 646.484 89.7656C667.448 89.7656 683.854 96.4714 695.703 109.883C707.552 123.294 713.477 144.323 713.477 172.969V264.961L740.82 270.82V305H631.836V270.82L656.25 264.961V173.164C656.25 158.971 653.451 148.945 647.852 143.086C642.253 137.096 633.919 134.102 622.852 134.102C614.648 134.102 607.487 135.859 601.367 139.375C595.378 142.76 590.365 147.643 586.328 154.023V264.961L609.375 270.82V305H501.953ZM756.445 305V270.82L783.984 264.961V40.5469L753.516 34.6875V0.3125H841.016V264.961L868.555 270.82V305H756.445ZM885.547 305V270.82L913.086 264.961V133.906L882.617 128.047V93.6719H970.117V264.961L997.461 270.82V305H885.547ZM911.133 48.9453V0.3125H970.117V48.9453H911.133ZM1099.61 309.102C1079.95 309.102 1064.78 303.698 1054.1 292.891C1043.55 282.083 1038.28 264.961 1038.28 241.523V133.711H1009.18V93.6719H1038.28V41.9141H1095.12V93.6719H1133.98V133.711H1095.12V241.328C1095.12 249.531 1096.81 255.391 1100.2 258.906C1103.71 262.422 1108.46 264.18 1114.45 264.18C1117.71 264.18 1121.09 263.984 1124.61 263.594C1128.26 263.073 1131.38 262.552 1133.98 262.031L1138.87 303.242C1133.01 304.935 1126.63 306.302 1119.73 307.344C1112.96 308.516 1106.25 309.102 1099.61 309.102Z" fill="url(#paint0_linear_8_337)"/>
<defs>
<linearGradient id="paint0_linear_8_337" x1="574.5" y1="21" x2="574.5" y2="305" gradientUnits="userSpaceOnUse">
<stop stop-color="#E65808"/>
<stop offset="0.5" stop-color="#E55808"/>
<stop offset="1" stop-color="#FFA800" stop-opacity="0.9"/>
</linearGradient>
</defs>
</svg>
