<svg width="36" height="36" viewBox="0 0 36 36" fill="none" xmlns="http://www.w3.org/2000/svg">
<rect width="36" height="36" rx="8" fill="white"/>
<path d="M9.5 20C10.8807 20 12 18.8807 12 17.5C12 16.1193 10.8807 15 9.5 15C8.1193 15 7 16.1193 7 17.5C7 18.8807 8.1193 20 9.5 20ZM20.5 17.5C20.5 18.8807 19.3807 20 18 20C16.6193 20 15.5 18.8807 15.5 17.5C15.5 16.1193 16.6193 15 18 15C19.3807 15 20.5 16.1193 20.5 17.5ZM26.5 20C27.8807 20 29 18.8807 29 17.5C29 16.1193 27.8807 15 26.5 15C25.1193 15 24 16.1193 24 17.5C24 18.8807 25.1193 20 26.5 20ZM12 25.5C12 26.8807 10.8807 28 9.5 28C8.1193 28 7 26.8807 7 25.5C7 24.1193 8.1193 23 9.5 23C10.8807 23 12 24.1193 12 25.5ZM18 28C19.3807 28 20.5 26.8807 20.5 25.5C20.5 24.1193 19.3807 23 18 23C16.6193 23 15.5 24.1193 15.5 25.5C15.5 26.8807 16.6193 28 18 28ZM0 6.25C0 2.79822 2.79822 0 6.25 0H29.75C33.2018 0 36 2.79822 36 6.25V29.75C36 33.2018 33.2018 36 29.75 36H6.25C2.79822 36 0 33.2018 0 29.75V6.25ZM6.25 2.5C4.1789 2.5 2.5 4.1789 2.5 6.25V8H33.5V6.25C33.5 4.1789 31.8211 2.5 29.75 2.5H6.25ZM2.5 29.75C2.5 31.8211 4.1789 33.5 6.25 33.5H29.75C31.8211 33.5 33.5 31.8211 33.5 29.75V10.5H2.5V29.75Z" fill="black"/>
</svg>
