<svg width="1000" height="1000" viewBox="0 0 1000 1000" fill="none" xmlns="http://www.w3.org/2000/svg">
<path d="M0 173.611C0 77.7283 77.7283 0 173.611 0H826.389C922.272 0 1000 77.7283 1000 173.611V222.222H0V173.611ZM0 291.667V826.389C0 922.272 77.7283 1000 173.611 1000H826.389C922.272 1000 1000 922.272 1000 826.389V291.667H0ZM333.333 486.111C333.333 524.464 302.242 555.556 263.889 555.556C225.536 555.556 194.444 524.464 194.444 486.111C194.444 447.758 225.536 416.667 263.889 416.667C302.242 416.667 333.333 447.758 333.333 486.111ZM500 555.556C461.647 555.556 430.556 524.464 430.556 486.111C430.556 447.758 461.647 416.667 500 416.667C538.353 416.667 569.444 447.758 569.444 486.111C569.444 524.464 538.353 555.556 500 555.556ZM805.556 486.111C805.556 524.464 774.464 555.556 736.111 555.556C697.758 555.556 666.667 524.464 666.667 486.111C666.667 447.758 697.758 416.667 736.111 416.667C774.464 416.667 805.556 447.758 805.556 486.111ZM263.889 777.778C225.536 777.778 194.444 746.686 194.444 708.333C194.444 669.981 225.536 638.889 263.889 638.889C302.242 638.889 333.333 669.981 333.333 708.333C333.333 746.686 302.242 777.778 263.889 777.778ZM569.444 708.333C569.444 746.686 538.353 777.778 500 777.778C461.647 777.778 430.556 746.686 430.556 708.333C430.556 669.981 461.647 638.889 500 638.889C538.353 638.889 569.444 669.981 569.444 708.333Z" fill="black"/>
</svg>
